# xmcd
#
# Track frame offsets:
#	150
#	4425
#	11837
#	25922
#	42260
#	56530
#	70575
#	82495
#	91847
#	104677
#	116632
#	128912
#	142132
#	157225
#	170445
#	184202
#	197717
#	210307
#	221502
#	243692
#	257495
#	267860
#	279792
#	294070
#	305720
#	311440
#
# Disc length: 4264 seconds
# Revision: 9
# Processed by: cddbd v1.5.2PL0 Copyright (c) Steve Scherf et al.
# Submitted via: dBpowerAMP V12.0
#
DISCID=8310a61a
DTITLE=Various Artist - Natural Blues (2000)
DYEAR=2000
DGENRE=Blues
TTITLE0=Bessie Jones - Sometimes
TTITLE1=Vera Hall - Trouble So Hard
TTITLE2=Howlin' Wolf - Smokestack Lightning
TTITLE3=Boy Blue, Willie Jones and Joe Lee - Joe Lee's Rock
TTITLE4=Lowell Fulson - Reconsider Baby
TTITLE5=Sonny Boy Williamson - Help Me
TTITLE6=Little Walter - My Babe
TTITLE7=Vera Hall - Bollweevil Holler
TTITLE8=Tommy Tucker - High Heeled Sneakers
TTITLE9=Little Milton - We're Gonna Make It
TTITLE10=John Lee Hooker - I'm in the Mood
TTITLE11=Boy Blue, Willie Jones and Joe Lee - Boogie Chillen
TTITLE12=Mississippi Fred McDowell - Shake 'Em on Down
TTITLE13=Muddy Waters - Mannish Boy
TTITLE14=Albert King - Searchin' for a Woman
TTITLE15=Koko Taylor - Wang Dang Doodle
TTITLE16=Jimmy Rogers - Walking By Myself
TTITLE17=Bo Diddley - Bo Diddley
TTITLE18=B.B. King - Confessin' the Blues
TTITLE19=Willie Dixon - Walking the Blues
TTITLE20=Buddy Guy - First Time I Met the Blues
TTITLE21=Louis Jordan - Slow Down
TTITLE22=Otis Rush - So Many Roads, So Many Trains
TTITLE23=Etta James - I'd Rather Go Blind
TTITLE24=Bessie Jones - Go to Sleep Little Baby
TTITLE25=Vera Hall - Death Have Mercy
EXTD=
EXTT0=
EXTT1=
EXTT2=
EXTT3=
EXTT4=
EXTT5=
EXTT6=
EXTT7=
EXTT8=
EXTT9=
EXTT10=
EXTT11=
EXTT12=
EXTT13=
EXTT14=
EXTT15=
EXTT16=
EXTT17=
EXTT18=
EXTT19=
EXTT20=
EXTT21=
EXTT22=
EXTT23=
EXTT24=
EXTT25=
PLAYORDER=
